<?xml version="1.0" standalone="no"?>
<!DOCTYPE svg PUBLIC "-//W3C//DTD SVG 20010904//EN"
 "http://www.w3.org/TR/2001/REC-SVG-20010904/DTD/svg10.dtd">
<svg version="1.0" xmlns="http://www.w3.org/2000/svg"
 width="500.000000pt" height="500.000000pt" viewBox="0 0 500.000000 500.000000"
 preserveAspectRatio="xMidYMid meet">
<metadata>
Created by potrace 1.14, written by Peter Selinger 2001-2017
</metadata>
<g transform="translate(0.000000,500.000000) scale(0.100000,-0.100000)"
fill="#000000" stroke="none">
<path d="M866 4057 c3 -12 13 -30 22 -39 8 -10 11 -18 6 -18 -5 0 -4 -4 3 -8
9 -6 59 -94 107 -189 6 -13 15 -23 19 -23 5 0 6 -4 2 -9 -3 -5 2 -16 10 -24 8
-9 15 -19 15 -22 0 -4 9 -20 21 -36 11 -16 17 -29 12 -29 -4 0 -2 -4 5 -9 7
-4 14 -14 15 -22 2 -8 7 -21 12 -29 10 -15 61 -112 98 -185 11 -22 24 -43 29
-46 4 -3 10 -15 12 -26 3 -12 15 -38 28 -59 13 -22 37 -66 52 -99 76 -161 91
-191 101 -197 5 -4 6 -8 1 -8 -5 0 -2 -8 7 -18 10 -10 14 -22 10 -25 -3 -4 -1
-7 5 -7 7 0 12 -7 12 -15 0 -8 5 -15 10 -15 6 0 10 -7 10 -15 0 -8 5 -15 11
-15 5 0 8 -4 4 -9 -3 -5 -1 -12 5 -16 5 -3 20 -27 31 -53 12 -26 28 -61 36
-79 8 -17 16 -37 17 -45 3 -13 9 -29 44 -115 9 -24 21 -43 25 -43 5 0 6 -4 2
-9 -3 -5 -1 -12 5 -16 6 -4 8 -11 5 -16 -4 -5 -2 -9 2 -9 5 0 9 -10 10 -22 1
-11 6 -24 10 -27 8 -6 15 -27 16 -48 0 -7 4 -13 9 -13 4 0 8 -9 8 -19 0 -11 5
-23 10 -26 6 -3 10 -15 10 -26 0 -10 4 -19 8 -19 9 0 31 -59 36 -94 1 -10 11
-25 21 -32 10 -8 15 -17 12 -21 -4 -3 1 -15 10 -26 13 -15 14 -18 3 -13 -8 4
-5 -1 8 -12 15 -14 18 -22 10 -25 -10 -4 -10 -6 0 -6 6 -1 12 -8 12 -16 0 -8
5 -15 10 -15 6 0 10 -11 10 -24 0 -14 11 -33 25 -44 14 -11 25 -25 25 -31 0
-6 5 -11 11 -11 5 0 7 -4 4 -10 -3 -5 -1 -10 5 -10 6 0 8 -4 5 -10 -3 -5 -1
-10 4 -10 6 0 10 -3 9 -7 -2 -12 12 -43 39 -86 14 -22 22 -41 19 -44 -3 -4 0
-11 8 -17 8 -6 26 -40 42 -76 16 -36 31 -67 35 -70 3 -3 12 -22 20 -43 7 -20
17 -37 21 -37 4 0 8 -9 8 -19 0 -11 3 -21 8 -23 12 -5 171 -325 165 -332 -4
-3 -1 -6 6 -6 7 0 9 -4 6 -10 -3 -5 -1 -10 4 -10 6 0 11 -5 11 -11 0 -10 56
-135 93 -209 11 -22 28 -31 26 -14 0 4 3 10 8 13 5 3 25 38 45 78 20 39 39 69
42 66 3 -4 6 3 6 15 0 12 5 22 12 22 6 0 8 3 5 7 -4 3 0 17 8 30 9 13 13 23
10 23 -3 0 4 18 15 40 11 21 20 46 20 55 0 10 5 13 12 9 6 -4 8 -3 5 3 -5 8
57 150 72 163 3 3 7 14 9 24 2 10 10 25 18 33 8 8 14 19 14 24 0 15 54 123 63
127 4 2 5 7 2 12 -3 5 2 16 11 24 8 9 12 16 9 16 -4 0 0 11 9 25 9 13 16 29
16 35 0 6 7 18 15 27 8 8 13 19 10 24 -4 5 -1 9 5 9 6 0 8 5 5 11 -4 6 -1 16
7 22 8 7 23 33 32 60 10 26 23 53 29 60 7 6 12 19 12 27 0 8 6 14 14 12 8 -2
11 3 8 13 -4 8 -2 15 3 15 5 0 12 11 16 25 3 14 10 22 15 19 5 -3 9 1 9 9 0 8
7 20 15 27 8 7 15 21 15 31 0 11 5 19 10 19 6 0 9 3 8 8 -1 4 3 17 10 29 7 13
10 23 6 23 -4 0 1 9 11 20 10 11 14 20 10 20 -4 0 0 10 11 22 10 12 13 18 5
13 -9 -5 -8 0 3 17 9 14 13 28 10 31 -4 4 0 9 9 13 9 3 13 12 10 20 -3 8 0 14
6 14 6 0 8 7 5 15 -4 8 -1 15 5 15 7 0 11 6 10 12 -2 24 13 58 24 51 6 -3 7
-1 3 5 -6 10 2 32 44 127 49 110 61 139 63 149 1 6 4 13 7 16 5 5 42 80 45 90
7 27 99 200 111 209 8 5 86 156 89 171 0 3 18 38 38 77 21 40 37 76 38 80 0 5
6 15 13 23 7 8 30 51 52 95 21 44 41 82 44 85 3 3 12 19 20 35 8 17 20 38 28
47 8 9 11 22 7 27 -3 6 -2 11 3 11 5 0 20 23 33 50 13 28 26 50 29 50 4 0 12
16 20 35 8 19 17 35 22 35 4 0 8 7 8 15 0 8 5 15 11 15 5 0 8 4 5 9 -3 5 1 14
9 21 8 7 15 18 15 25 0 8 3 15 8 17 5 2 52 88 71 131 4 10 -67 3 -204 -19 -82
-14 -255 -23 -524 -27 l-105 -2 -62 -120 c-34 -66 -77 -149 -96 -185 -18 -36
-35 -67 -38 -70 -3 -3 -25 -45 -50 -95 -25 -49 -58 -113 -75 -141 -16 -27 -68
-126 -115 -220 -47 -93 -87 -171 -90 -174 -13 -13 -119 -230 -113 -230 5 0 0
-5 -9 -11 -10 -5 -18 -18 -18 -29 0 -10 -3 -20 -7 -22 -5 -1 -20 -25 -34 -53
-38 -75 -70 -125 -79 -125 -4 0 -15 17 -25 38 -27 61 -155 299 -178 332 -9 13
-14 27 -11 32 3 4 0 8 -5 8 -6 0 -11 6 -11 13 0 7 -8 22 -17 33 -10 11 -19 24
-20 30 -2 14 -85 188 -92 194 -3 3 -21 34 -40 70 -77 150 -154 296 -161 305
-12 16 -84 151 -154 291 l-67 131 -197 3 c-305 4 -322 5 -322 10 0 3 -17 6
-38 6 -20 1 -48 4 -62 7 -24 5 -45 8 -150 22 -25 4 -51 8 -58 11 -10 3 -11 -2
-6 -19z"/>
</g>
</svg>
